<svg width="231" height="239" viewBox="0 0 231 239" fill="none" xmlns="http://www.w3.org/2000/svg">
<path d="M138.777 49.8788L136.364 19.0987C136.214 17.1967 135.274 15.4736 133.816 14.4008C132.351 13.336 130.525 13.0353 128.834 13.5961L100.613 22.9838C97.5312 24.0079 95.8026 27.5435 96.7495 30.8678C97.6965 34.2002 100.958 36.0696 104.04 35.0455L116.162 31.0141L70.7833 95.9149L41.9535 94.9721C40.2024 94.9233 38.5264 95.7117 37.3765 97.1341L1.43708 141.74C-0.682312 144.365 -0.426782 148.356 2.00075 150.64C3.10554 151.68 4.47337 152.192 5.83369 152.192C7.46457 152.192 9.08042 151.461 10.2378 150.03L44.366 107.676L73.4438 108.627C75.3302 108.684 77.1339 107.757 78.2763 106.124L126.113 37.7114L127.15 50.9354C127.406 54.2272 129.961 56.7143 132.96 56.7143C133.125 56.7143 133.29 56.7143 133.456 56.6899C136.665 56.3973 139.047 53.3413 138.777 49.8707V49.8788Z" fill="#76ABAE"/>
<path d="M230.97 129.251L228.264 94.7402C228.152 93.2691 227.693 91.8386 226.837 90.6844C225.078 88.3192 222.244 87.4496 219.697 88.2948L187.883 98.8854C184.509 100.007 182.352 103.738 183.171 107.452C184.065 111.516 187.928 113.857 191.566 112.654L205.327 108.078L167.494 162.112C165.352 165.176 165.825 169.525 168.561 171.963C171.469 174.548 175.776 174.003 178.053 170.76L216.608 115.686L217.788 130.698C218.081 134.437 220.974 137.257 224.379 137.257C225.048 137.257 225.739 137.151 226.431 136.907C229.407 135.875 231.233 132.632 230.97 129.267V129.251Z" fill="#76ABAE"/>
<path d="M106.918 193.445L104.212 158.934C104.1 157.463 103.641 156.032 102.784 154.878C101.026 152.513 98.1925 151.643 95.6522 152.489L63.8388 163.079C60.4643 164.201 58.3073 167.932 59.1265 171.646C60.0209 175.71 63.8839 178.051 67.5214 176.848L81.2824 172.272L42.6524 227.517C40.5105 230.581 40.9839 234.921 43.7271 237.368C46.6356 239.952 50.9496 239.408 53.2193 236.157L92.5708 179.871L93.7508 194.884C94.0439 198.622 96.9374 201.443 100.342 201.443C101.011 201.443 101.702 201.337 102.394 201.093C105.37 200.061 107.196 196.818 106.933 193.453L106.918 193.445Z" fill="#76ABAE"/>
<path d="M214.421 22.797L212.925 3.73717C212.865 2.92438 212.609 2.13598 212.136 1.49388C211.166 0.1853 209.603 -0.294243 208.198 0.177172L190.626 6.02922C188.763 6.64694 187.568 8.71141 188.018 10.7596C188.515 13.0029 190.649 14.3034 192.656 13.6288L200.254 11.101L178.917 41.6211C177.737 43.3116 177.993 45.7094 179.511 47.0586C181.119 48.4891 183.502 48.1884 184.757 46.3921L206.492 15.3031L207.138 23.5935C207.303 25.658 208.897 27.2185 210.776 27.2185C211.144 27.2185 211.527 27.1616 211.91 27.0234C213.556 26.4545 214.564 24.6582 214.413 22.8051L214.421 22.797Z" fill="#76ABAE"/>
</svg>
